# xmcd CD database file
#
# Track frame offsets:
#	150
#	32957
#	68487
#	97667
#	128210
#	149870
#	178432
#	198055
#	229652
#	247132
#	272107
#
# Disc length: 3864 seconds
#
# Revision: 1
# Processed by: cddbd v1.5.2PL0 Copyright (c) Steve Scherf et al.
# Submitted via: CDex 1.51
#
DISCID=a30f160b
DTITLE=Warren Bernhardt - Reflections
DYEAR=2000
DGENRE=Jazz
TTITLE0=Everytime We Say Goodbye
TTITLE1=Stone Ground
TTITLE2=Some Other Spring
TTITLE3=Cordobalgia
TTITLE4=Reflections
TTITLE5=Tuzz's Shadow
TTITLE6=Re: Person I Knew
TTITLE7=My Funny Valentine
TTITLE8=The Gift
TTITLE9=Catwalk
TTITLE10=A Prayer For My Family
EXTD=YEAR: 2000
EXTT0=
EXTT1=
EXTT2=
EXTT3=
EXTT4=
EXTT5=
EXTT6=
EXTT7=
EXTT8=
EXTT9=
EXTT10=
PLAYORDER=
